<?xml version="1.0" encoding="utf-8"?>
<!-- Generator: Adobe Illustrator 19.2.1, SVG Export Plug-In . SVG Version: 6.00 Build 0)  -->
<svg version="1.1" id="Layer_1" xmlns="http://www.w3.org/2000/svg" xmlns:xlink="http://www.w3.org/1999/xlink" x="0px" y="0px"
	 viewBox="0 0 176 9.2" style="enable-background:new 0 0 176 9.2;" xml:space="preserve">
<style type="text/css">
	.st0{fill:#7B7C7F;}
	.st1{fill:#C0C2BA;}
	.st2{fill:#ABBDC1;}
	.st3{fill:#ECECED;}
	.st4{fill:#ABADB0;}
	.st5{fill:#E9E9EA;}
	.st6{fill:#D3D1D3;}
	.st7{fill:#989498;}
	.st8{fill:#D4E0B3;}
	.st9{fill:#EFF7F7;}
	.st10{fill:#7CCFDC;}
	.st11{fill:#CEEBEF;}
	.st12{fill:#EEECE0;}
	.st13{fill:#D7D6CB;}
	.st14{fill:#E7C8B5;}
	.st15{fill:#718D84;}
	.st16{fill:#4D4D4F;}
	.st17{fill:#F7941E;}
	.st18{fill:none;stroke:#ECECED;stroke-miterlimit:10;}
	.st19{fill:none;stroke:#ECECED;stroke-linecap:round;stroke-linejoin:round;stroke-miterlimit:10;}
	.st20{fill:#FFFFFF;}
</style>
<g>
	<path class="st4" d="M90.1,4.9c0,0,0.8-2.3-1.8-2.3c-2.7,0-2.3,2.1-2.3,2.1C89.2,2.1,90.1,4.9,90.1,4.9z"/>
	<path class="st4" d="M38.8,4.3C42.6,4.7,55,6.2,61.2,7.2c7.4,1.2,20.7,3.3,20.7-2l0-0.3h1.8c0.2,2.4,2.2,4.3,4.6,4.3
		c2.4,0,4.4-1.9,4.6-4.3h1.4c0.5,4.9,10.3,4.1,20.5,2.7c5.3-0.7,11.1-1.1,15.6-1.4c0,0,45.8-0.2,45.8-0.4c0-0.2-38.8-0.4-38.8-0.4
		c-3.9-0.4-16.2-1.9-22.4-2.9c-7.3-1.2-20.3-3.2-20.7,1.8h-1.4C92.6,1.9,90.7,0,88.2,0c-2.4,0-4.4,1.9-4.6,4.3h-1.9
		c-1.1-4.4-10.5-3.6-20.4-2.2c-5.3,0.7-11.1,1.1-15.6,1.4C45.8,3.5,0,3.6,0,3.9C0,4.1,38.8,4.3,38.8,4.3z M106.2,3.5
		c6.8,0.4,17,2,17,2s-12.1,1.6-17.8,2.3c-5.7,0.6-10.7-0.6-10.7-2.5C94.8,3.5,99.5,3.1,106.2,3.5z M88,1.6c1.8,0,3.2,1.4,3.2,3.2
		C91.2,6.6,89.8,8,88,8c-1.8,0-3.2-1.4-3.2-3.2C84.8,3.1,86.2,1.6,88,1.6z M70.4,3.1c5.7-0.6,10.7,0.6,10.7,2.5
		c0,1.8-4.7,2.3-11.5,1.8c-6.8-0.4-17-2.1-17-2.1S64.7,3.7,70.4,3.1z"/>
</g>
</svg>
