<?xml version="1.0" encoding="utf-8"?>
<!-- Generator: Adobe Illustrator 19.2.1, SVG Export Plug-In . SVG Version: 6.00 Build 0)  -->
<svg version="1.1" id="Layer_1" xmlns="http://www.w3.org/2000/svg" xmlns:xlink="http://www.w3.org/1999/xlink" x="0px" y="0px"
	 viewBox="0 0 31.9 17.5" style="enable-background:new 0 0 31.9 17.5;" xml:space="preserve">
<style type="text/css">
	.st0{fill:#7B7C7F;}
	.st1{fill:#C0C2BA;}
	.st2{fill:#ABBDC1;}
	.st3{fill:#ECECED;}
	.st4{fill:#ABADB0;}
	.st5{fill:#E9E9EA;}
	.st6{fill:#D3D1D3;}
	.st7{fill:#989498;}
	.st8{fill:#D4E0B3;}
	.st9{fill:#EFF7F7;}
	.st10{fill:#7CCFDC;}
	.st11{fill:#CEEBEF;}
	.st12{fill:#EEECE0;}
	.st13{fill:#D7D6CB;}
	.st14{fill:#E7C8B5;}
	.st15{fill:#718D84;}
	.st16{fill:#4D4D4F;}
	.st17{fill:#F7941E;}
	.st18{fill:none;stroke:#ECECED;stroke-miterlimit:10;}
	.st19{fill:none;stroke:#ECECED;stroke-linecap:round;stroke-linejoin:round;stroke-miterlimit:10;}
</style>
<g>
	<path class="st4" d="M19,9.8c0,0-0.7,1.7-2.2,1.7c-1.6,0-3.2-1-5-1.9c-1-0.4-1.8-0.7-2.6-0.8c0.8-0.1,1.6-0.4,2.6-0.8
		c1.9-0.8,3.5-1.9,5-1.9C18.4,6,19,7.7,19,7.7c0.6-0.6,1.2-0.4,1.2-0.4c-0.4-1.1-1.3-1.6-1.3-1.6c-2.2-1.2-4.1,0.4-6.9,1.7
		c-1.4,0.7-2.6,1-3.5,1.1H7.1V7.5c6.6-0.3,8.8-5.8,8.8-5.8c-1-0.5-1.1-1.8-1.1-1.8c-0.1,1.5-1.2,1.4-1.2,1.4C13.3,4,11,6.2,8.6,6.9
		C6.2,7.5,4.2,6.9,3.4,6C2.6,5.1,2.8,3.6,3.8,3.6c1,0,0.9,1.5,0.9,1.5C5.5,3.8,6,5.4,6,5.4C5.7,3.3,6.9,3.9,6.9,3.9
		C5.6,2.6,3.8,2.2,3,3.4C2.1,4.6,2.9,5.9,2.9,5.9C4,7.5,6.4,7.6,6.8,7.5v1.1H4.6c-1.3-0.3-1.8-1-1.8-1c-0.5,0.6-1.1,0.9-1.6,1H0.1
		C0.1,8.6,0,8.7,0,8.8c0,0.1,0.1,0.1,0.1,0.1h1.2c0.5,0.1,1,0.4,1.5,1c0,0,0.4-0.7,1.6-1h2.4v1c-0.4,0-2.8,0-3.9,1.7
		c0,0-0.7,1.2,0.1,2.4c0.8,1.2,2.6,0.8,3.9-0.5c0,0-1.1,0.6-0.9-1.5c0,0-0.5,1.6-1.3,0.4c0,0,0.1,1.5-0.9,1.5c-1,0-1.2-1.5-0.4-2.4
		c0.8-0.9,2.8-1.6,5.2-0.9c2.4,0.7,4.7,2.9,5,5.5c0,0,1.2-0.1,1.2,1.4c0,0,0.1-1.3,1.1-1.8c0,0-2.3-5.5-8.8-5.8v-1h1.6l0.1,0
		c0.9,0.2,2,0.5,3.3,1.1c2.7,1.4,4.7,2.9,6.9,1.7c0,0,1-0.5,1.3-1.6C20.3,10.1,19.6,10.3,19,9.8z"/>
	<path class="st4" d="M31.8,8.5h-5.1c-0.9-0.2-2-0.5-2.8-1.1c0,0-0.6,0.8-2.2,1.1h-5.9c-0.1,0-0.1,0.1-0.1,0.1
		c0,0.1,0.1,0.1,0.1,0.1h5.8c0.6,0.2,1.5,0.5,2.2,1.2c0,0,1-0.8,3.2-1.2h4.6c0.1,0,0.1-0.1,0.1-0.1C31.9,8.5,31.8,8.5,31.8,8.5z"/>
	<circle class="st4" cx="14.5" cy="8.6" r="0.6"/>
</g>
</svg>
