<?xml version="1.0" encoding="utf-8"?>
<!-- Generator: Adobe Illustrator 19.2.1, SVG Export Plug-In . SVG Version: 6.00 Build 0)  -->
<svg version="1.1" id="Layer_1" xmlns="http://www.w3.org/2000/svg" xmlns:xlink="http://www.w3.org/1999/xlink" x="0px" y="0px"
	 viewBox="0 0 31.9 17.5" style="enable-background:new 0 0 31.9 17.5;" xml:space="preserve">
<style type="text/css">
	.st0{fill:#7B7C7F;}
	.st1{fill:#C0C2BA;}
	.st2{fill:#ABBDC1;}
	.st3{fill:#ECECED;}
	.st4{fill:#ABADB0;}
	.st5{fill:#E9E9EA;}
	.st6{fill:#D3D1D3;}
	.st7{fill:#989498;}
	.st8{fill:#D4E0B3;}
	.st9{fill:#EFF7F7;}
	.st10{fill:#7CCFDC;}
	.st11{fill:#CEEBEF;}
	.st12{fill:#EEECE0;}
	.st13{fill:#D7D6CB;}
	.st14{fill:#E7C8B5;}
	.st15{fill:#718D84;}
	.st16{fill:#4D4D4F;}
	.st17{fill:#F7941E;}
	.st18{fill:none;stroke:#ECECED;stroke-miterlimit:10;}
	.st19{fill:none;stroke:#ECECED;stroke-linecap:round;stroke-linejoin:round;stroke-miterlimit:10;}
	.st20{fill:#FFFFFF;}
</style>
<g>
	<path class="st20" d="M12.8,9.8c0,0,0.7,1.7,2.2,1.7c1.6,0,3.2-1,5-1.9c1-0.4,1.8-0.7,2.6-0.8c-0.8-0.1-1.6-0.4-2.6-0.8
		c-1.9-0.8-3.5-1.9-5-1.9c-1.6,0-2.2,1.7-2.2,1.7c-0.6-0.6-1.2-0.4-1.2-0.4C12,6.2,13,5.7,13,5.7c2.2-1.2,4.1,0.4,6.9,1.7
		c1.4,0.7,2.6,1,3.5,1.1h1.6V7.5C18.3,7.2,16,1.8,16,1.8C17,1.3,17.1,0,17.1,0c0.1,1.5,1.2,1.4,1.2,1.4c0.2,2.6,2.6,4.8,5,5.5
		c2.4,0.7,4.4,0,5.2-0.9c0.8-0.9,0.6-2.4-0.4-2.4c-1,0-0.9,1.5-0.9,1.5c-0.7-1.3-1.3,0.4-1.3,0.4C26.1,3.3,25,3.9,25,3.9
		c1.3-1.3,3.1-1.7,3.9-0.5C29.8,4.6,29,5.9,29,5.9c-1.1,1.7-3.5,1.7-3.9,1.7v1.1h2.2c1.3-0.3,1.8-1,1.8-1c0.5,0.6,1.1,0.9,1.6,1h1.1
		c0.1,0,0.1,0.1,0.1,0.1c0,0.1-0.1,0.1-0.1,0.1h-1.2c-0.5,0.1-1,0.4-1.5,1c0,0-0.4-0.7-1.6-1h-2.4v1c0.4,0,2.8,0,3.9,1.7
		c0,0,0.7,1.2-0.1,2.4c-0.8,1.2-2.6,0.8-3.9-0.5c0,0,1.1,0.6,0.9-1.5c0,0,0.5,1.6,1.3,0.4c0,0-0.1,1.5,0.9,1.5c1,0,1.2-1.5,0.4-2.4
		c-0.8-0.9-2.8-1.6-5.2-0.9c-2.4,0.7-4.7,2.9-5,5.5c0,0-1.2-0.1-1.2,1.4c0,0-0.1-1.3-1.1-1.8c0,0,2.3-5.5,8.8-5.8v-1h-1.6l-0.1,0
		c-0.9,0.2-2,0.5-3.3,1.1c-2.7,1.4-4.7,2.9-6.9,1.7c0,0-1-0.5-1.3-1.6C11.6,10.1,12.2,10.3,12.8,9.8z"/>
	<path class="st20" d="M0.1,8.5h5.1C6.1,8.3,7.2,8,8,7.4c0,0,0.6,0.8,2.2,1.1H16c0.1,0,0.1,0.1,0.1,0.1c0,0.1-0.1,0.1-0.1,0.1h-5.8
		C9.6,8.9,8.7,9.3,8,9.9c0,0-1-0.8-3.2-1.2H0.1C0.1,8.7,0,8.7,0,8.6C0,8.5,0.1,8.5,0.1,8.5z"/>
	<circle class="st20" cx="17.4" cy="8.6" r="0.6"/>
</g>
</svg>
